<svg width="100%" height="100%" viewBox="0 0 24 24" version="1.1" style="fill-rule:evenodd;clip-rule:evenodd;stroke-linejoin:round;stroke-miterlimit:2;" xmlns="http://www.w3.org/2000/svg">
    <path d="M5.733,2.724c0.092,-0.004 0.18,0.011 0.266,0.045c1.238,0.47 2.208,1.263 2.91,2.378c0.205,0.369 0.333,0.763 0.384,1.182c0.16,1.881 0.327,3.762 0.502,5.642c0.086,0.84 0.185,1.677 0.295,2.511c-0.384,-0.759 -0.699,-1.546 -0.945,-2.363c-0.37,-1.311 -0.744,-2.621 -1.123,-3.929c-0.484,-1.573 -1.085,-3.099 -1.802,-4.579c-0.142,-0.266 -0.3,-0.522 -0.472,-0.768c-0.015,-0.039 -0.02,-0.078 -0.015,-0.119Zm-2.836,1.862c1.628,0.146 2.913,0.885 3.855,2.215c0.256,0.423 0.473,0.866 0.65,1.33c0.418,1.253 0.812,2.513 1.182,3.781c0.443,1.438 1.083,2.777 1.92,4.017c0.06,0.091 0.094,0.189 0.103,0.296c-0.074,-0.008 -0.143,-0.032 -0.206,-0.074c-1.047,-0.79 -1.928,-1.731 -2.644,-2.821c-0.915,-1.523 -1.712,-3.109 -2.393,-4.756c-0.619,-1.406 -1.436,-2.676 -2.452,-3.811c-0.048,-0.058 -0.053,-0.117 -0.015,-0.177Zm6.086,-2.895c0.05,-0.005 0.099,-0 0.147,0.014c2.188,1.743 3.139,4.013 2.851,6.81c-0.032,0.245 -0.062,0.492 -0.089,0.738c-0.329,1.644 -0.595,3.299 -0.797,4.963c-0.02,0.315 -0.02,0.63 -0,0.945c0.027,0.161 0.066,0.318 0.118,0.473c0.458,-1.518 1.467,-2.438 3.028,-2.762c0.752,-0.187 1.5,-0.177 2.245,0.029c1.346,0.624 2.686,1.264 4.018,1.921c0.086,0.118 0.077,0.227 -0.03,0.325c-0.706,0.333 -0.986,0.889 -0.842,1.669c0.139,0.453 0.434,0.749 0.886,0.886c0.073,0.142 0.048,0.266 -0.073,0.369c-3.197,1.48 -6.407,2.928 -9.631,4.343c-0.17,0.025 -0.337,0.015 -0.502,-0.03c-0.274,-0.146 -0.54,-0.303 -0.798,-0.472l-8.212,-5.377c-0.232,-0.143 -0.385,-0.345 -0.458,-0.606c-0.02,-0.915 -0.02,-1.831 -0,-2.747c0.041,-0.1 0.105,-0.184 0.192,-0.251c1.54,-0.632 3.086,-1.248 4.638,-1.846c0.061,0.005 0.106,0.035 0.133,0.088c0.768,1.621 1.787,3.063 3.057,4.328c0.703,0.613 1.5,1.065 2.393,1.359c0.118,0.044 0.236,0.049 0.355,0.015c-0.769,-1.257 -1.197,-2.626 -1.285,-4.106c-0.134,-2.23 -0.311,-4.455 -0.532,-6.677c-0.17,-1.419 -0.445,-2.817 -0.827,-4.195c-0.021,-0.071 -0.016,-0.14 0.015,-0.206Zm10.132,13.795c-2.815,1.127 -5.621,2.279 -8.419,3.457c-0.137,0.232 -0.206,0.478 -0.207,0.738c2.444,-0.988 4.896,-1.953 7.356,-2.895c0.005,0.039 -0.005,0.074 -0.03,0.104c-2.205,1.009 -4.42,1.993 -6.646,2.954c-0.233,0.09 -0.469,0.169 -0.709,0.236c-0.029,0.16 -0.039,0.322 -0.03,0.487c1.588,-0.626 3.173,-1.261 4.756,-1.905c0.35,-0.143 0.704,-0.261 1.064,-0.354c-1.534,0.744 -3.07,1.482 -4.609,2.215c-0.354,0.172 -0.718,0.32 -1.093,0.443c-0.029,0.149 -0.004,0.292 0.074,0.429c0.053,0.056 0.118,0.07 0.192,0.044c2.817,-1.261 5.634,-2.521 8.449,-3.781c-0.038,-0.042 -0.073,-0.086 -0.103,-0.133c-0.347,-0.689 -0.332,-1.368 0.044,-2.039l-0.089,0Zm-17.577,-1.861c-0.009,0.264 0.001,0.525 0.03,0.783c2.488,1.465 4.9,3.041 7.237,4.727c-0.304,-0.148 -0.61,-0.305 -0.915,-0.473l-6.293,-3.619c-0.039,0.227 -0.039,0.453 0,0.68c2.752,1.804 5.51,3.601 8.272,5.391c0.04,0.037 0.08,0.042 0.118,0.015c-0.298,-0.747 -0.269,-1.481 0.089,-2.201c-0.008,-0.037 -0.028,-0.067 -0.06,-0.089l-7.089,-4.401c-0.456,-0.287 -0.919,-0.558 -1.389,-0.813Zm13.944,-3.102c0.783,-0.015 1.531,0.137 2.245,0.458l1.359,0.65c0.54,0.235 1.102,0.304 1.684,0.207c0.166,-0.054 0.333,-0.093 0.502,-0.118c-0.753,0.554 -1.581,0.702 -2.482,0.443c-0.65,-0.289 -1.31,-0.555 -1.979,-0.798c-1.106,-0.357 -2.18,-0.279 -3.22,0.237c-0.16,0.104 -0.327,0.183 -0.502,0.236c0.609,-0.777 1.407,-1.216 2.393,-1.315Zm-0.384,-1.979c0.529,-0.014 1.051,0.04 1.565,0.163c0.969,0.323 1.934,0.657 2.895,1.004c0.675,0.223 1.364,0.282 2.068,0.177c0.223,-0.051 0.439,-0.12 0.65,-0.207c0.31,-0.154 0.606,-0.322 0.886,-0.502c-0.808,1.064 -1.881,1.508 -3.22,1.33c-0.406,-0.048 -0.8,-0.147 -1.181,-0.296c-0.637,-0.264 -1.277,-0.52 -1.92,-0.768c-0.895,-0.317 -1.811,-0.396 -2.748,-0.236c-0.513,0.109 -1.016,0.247 -1.506,0.413c0.726,-0.619 1.563,-0.978 2.511,-1.078Zm4.697,-3.102c0.48,-0.036 0.933,0.058 1.359,0.281c0.616,0.484 0.769,1.089 0.457,1.817c-0.293,0.42 -0.692,0.691 -1.196,0.812c-0.734,0.172 -1.453,0.123 -2.156,-0.148c-0.723,-0.287 -1.442,-0.582 -2.157,-0.886c-0.839,-0.304 -1.706,-0.451 -2.6,-0.443c0.167,-0.086 0.344,-0.145 0.532,-0.177c0.756,-0.154 1.504,-0.125 2.245,0.088c0.738,0.253 1.467,0.529 2.186,0.828c0.521,0.177 1.052,0.226 1.596,0.147c0.405,-0.052 0.706,-0.254 0.901,-0.605c0.114,-0.264 0.084,-0.51 -0.089,-0.739c-0.337,-0.364 -0.756,-0.541 -1.256,-0.532c-0.437,0.008 -0.86,0.087 -1.27,0.237l-0.029,-0.03c0.437,-0.347 0.929,-0.563 1.477,-0.65Z" style="fill:#20B2AA;"/>
</svg>